# Blender 3.3.1
# www.blender.org
mtllib map.mtl
o Torus
v 6.486666 -1.000000 -0.472412
v 13.277947 66.000000 -7.263694
v 6.486666 -1.000000 -16.054976
v 13.277947 66.000000 -9.263694
v 22.069231 -1.000000 -0.472412
v 15.277947 66.000000 -7.263694
v 22.069231 -1.000000 -16.054976
v 15.277947 66.000000 -9.263694
v -1.000000 -1.000000 1.000000
v -1.000000 4.000000 1.000000
v -1.000000 -1.000000 -1.000000
v -1.000000 4.000000 -1.000000
v 0.000000 -1.000000 1.000000
v 0.000000 3.000000 1.000000
v 0.000000 -1.000000 -1.000000
v 0.000000 3.000000 -1.000000
v -1.000000 5.000000 1.000000
v -1.000000 5.000000 -1.000000
v 0.000000 5.000000 1.000000
v 0.000000 5.000000 -1.000000
v -3.000000 4.000000 1.000000
v -3.000000 4.000000 -1.000000
v -3.000000 5.000000 1.000000
v -3.000000 5.000000 -1.000000
v -4.000000 3.000000 1.000000
v -4.000000 3.000000 -1.000000
v -4.000000 5.000000 1.000000
v -4.000000 5.000000 -1.000000
v -3.000000 -1.000000 1.000000
v -3.000000 -1.000000 -1.000000
v -4.000000 -1.000000 1.000000
v -4.000000 -1.000000 -1.000000
v -28.312117 -1.000000 -18.213480
v -28.312117 18.000000 -18.213480
v -28.312117 -1.000000 -257.329193
v -28.312117 18.000000 -257.329193
v -24.312117 -1.000000 -18.213480
v -24.312117 18.000000 -18.213480
v -24.312117 -1.000000 -257.329193
v -24.312117 18.000000 -257.329193
vn -0.9949 0.1008 -0.0000
vn -0.0000 0.1008 -0.9949
vn 0.9949 0.1008 -0.0000
vn -0.0000 0.1008 0.9949
vn -0.0000 -1.0000 -0.0000
vn -0.0000 1.0000 -0.0000
vn -1.0000 -0.0000 -0.0000
vn -0.0000 -0.0000 -1.0000
vn 1.0000 -0.0000 -0.0000
vn -0.0000 -0.0000 1.0000
vt 0.375000 0.000000
vt 0.375000 1.000000
vt 0.125000 0.750000
vt 0.625000 0.000000
vt 0.625000 1.000000
vt 0.875000 0.750000
vt 0.375000 0.250000
vt 0.125000 0.500000
vt 0.625000 0.250000
vt 0.875000 0.500000
vt 0.375000 0.750000
vt 0.625000 0.750000
vt 0.375000 0.500000
vt 0.625000 0.500000
vt 0.375000 0.000000
vt 0.375000 1.000000
vt 0.125000 0.750000
vt 0.625000 0.000000
vt 0.625000 1.000000
vt 0.125000 0.500000
vt 0.375000 0.250000
vt 0.625000 0.250000
vt 0.375000 0.750000
vt 0.625000 0.750000
vt 0.375000 0.500000
vt 0.625000 0.500000
vt 0.875000 0.750000
vt 0.625000 1.000000
vt 0.625000 0.250000
vt 0.875000 0.500000
vt 0.625000 0.750000
vt 0.625000 0.500000
vt 0.625000 1.000000
vt 0.625000 0.000000
vt 0.625000 0.250000
vt 0.625000 1.000000
vt 0.875000 0.750000
vt 0.625000 0.250000
vt 0.875000 0.500000
vt 0.625000 0.000000
vt 0.625000 1.000000
vt 0.625000 0.250000
vt 0.625000 1.000000
vt 0.625000 0.000000
vt 0.875000 0.750000
vt 0.625000 0.250000
vt 0.875000 0.500000
vt 0.625000 1.000000
vt 0.625000 0.000000
vt 0.625000 0.250000
vt 0.625000 1.000000
vt 0.625000 0.000000
vt 0.625000 0.250000
vt 0.375000 0.000000
vt 0.375000 1.000000
vt 0.125000 0.750000
vt 0.625000 0.000000
vt 0.625000 1.000000
vt 0.875000 0.750000
vt 0.125000 0.500000
vt 0.375000 0.250000
vt 0.625000 0.250000
vt 0.875000 0.500000
vt 0.375000 0.750000
vt 0.625000 0.750000
vt 0.375000 0.500000
vt 0.625000 0.500000
s 0
f 1/1/1 2/4/1 4/9/1
f 1/1/1 4/9/1 3/7/1
f 4/9/2 7/13/2 3/7/2
f 8/14/3 5/11/3 7/13/3
f 6/12/4 1/2/4 5/11/4
f 7/13/5 1/3/5 3/8/5
f 4/10/6 6/12/6 8/14/6
f 10/18/7 11/21/7 9/15/7
f 11/21/8 16/26/8 15/25/8
f 16/26/9 13/23/9 15/25/9
f 14/24/10 9/16/10 13/23/10
f 15/25/5 9/17/5 11/20/5
f 16/26/9 19/31/9 14/24/9
f 18/30/6 19/31/6 20/32/6
f 10/18/5 22/35/5 12/22/5
f 10/19/10 19/31/10 17/28/10
f 12/22/8 20/32/8 16/26/8
f 21/33/10 27/43/10 25/41/10
f 17/28/10 21/33/10 10/19/10
f 18/30/6 23/37/6 17/27/6
f 12/22/8 24/38/8 18/29/8
f 25/40/7 28/46/7 26/42/7
f 25/41/10 29/48/10 21/33/10
f 22/35/8 28/46/8 24/38/8
f 24/39/6 27/45/6 23/37/6
f 29/49/5 32/53/5 30/50/5
f 21/34/9 30/50/9 22/35/9
f 26/42/8 30/50/8 32/53/8
f 26/42/7 31/52/7 25/40/7
f 34/57/7 35/61/7 33/54/7
f 36/62/8 39/66/8 35/61/8
f 40/67/9 37/64/9 39/66/9
f 38/65/10 33/55/10 37/64/10
f 39/66/5 33/56/5 35/60/5
f 36/63/6 38/65/6 40/67/6
f 4/9/2 8/14/2 7/13/2
f 8/14/3 6/12/3 5/11/3
f 6/12/4 2/5/4 1/2/4
f 7/13/5 5/11/5 1/3/5
f 4/10/6 2/6/6 6/12/6
f 10/18/7 12/22/7 11/21/7
f 11/21/8 12/22/8 16/26/8
f 16/26/9 14/24/9 13/23/9
f 14/24/10 10/19/10 9/16/10
f 15/25/5 13/23/5 9/17/5
f 16/26/9 20/32/9 19/31/9
f 18/30/6 17/27/6 19/31/6
f 10/18/5 21/34/5 22/35/5
f 10/19/10 14/24/10 19/31/10
f 12/22/8 18/29/8 20/32/8
f 21/33/10 23/36/10 27/43/10
f 17/28/10 23/36/10 21/33/10
f 18/30/6 24/39/6 23/37/6
f 12/22/8 22/35/8 24/38/8
f 25/40/7 27/44/7 28/46/7
f 25/41/10 31/51/10 29/48/10
f 22/35/8 26/42/8 28/46/8
f 24/39/6 28/47/6 27/45/6
f 29/49/5 31/52/5 32/53/5
f 21/34/9 29/49/9 30/50/9
f 26/42/8 22/35/8 30/50/8
f 26/42/7 32/53/7 31/52/7
f 34/57/7 36/62/7 35/61/7
f 36/62/8 40/67/8 39/66/8
f 40/67/9 38/65/9 37/64/9
f 38/65/10 34/58/10 33/55/10
f 39/66/5 37/64/5 33/56/5
f 36/63/6 34/59/6 38/65/6
